# xmcd
#
# Track frame offsets: 
#        182
#        31532
#        67307
#        86132
#        117032
#        149282
#        181082
#        199307
#        222857
#        255857
#        277682
#        310982
#
# Disc length: 4502 seconds
#
# Revision: 3
# Processed by: cddbd v1.5.2PL0 Copyright (c) Steve Scherf et al.
# Submitted via: ExactAudioCopy v1.3
#
DISCID=a311940c
DTITLE=Aeolian String Qyartet - Haydn The String Quartets CD21
DYEAR=1976
DGENRE=Classical
TTITLE0=Haydn String Quartet in E Flat Op 76 Erdody No 6 Hob III 80 - 
TTITLE0=1 Allegretto-Allegro
TTITLE1=Haydn String Quartet in E Flat Op 76 Erdody No 6 Hob III 80 - 
TTITLE1=2 Fantasia(Adagio)
TTITLE2=Haydn String Quartet in E Flat Op 76 Erdody No 6 Hob III 80 - 
TTITLE2=3 Menuetto(Presto)
TTITLE3=Haydn String Quartet in E Flat Op 76 Erdody No 6 Hob III 80 - 
TTITLE3=4 Finale(Allegro spirituoso)
TTITLE4=Haydn String Quartet in G Op 77 Lobkowitz No 1 Hob III 81 - 1 
TTITLE4=Allegro moderato
TTITLE5=Haydn String Quartet in G Op 77 Lobkowitz No 1 Hob III 81 -2 A
TTITLE5=dagio
TTITLE6=Haydn String Quartet in G Op 77 Lobkowitz No 1 Hob III 81 -3 M
TTITLE6=enuetto(Presto)
TTITLE7=Haydn String Quartet in G Op 77 Lobkowitz No 1 Hob III 81 -4 F
TTITLE7=inale(Presto)
TTITLE8=Haydn String Quartet in F Op 77 Lobkowitz No 2 Hob III 82 - 1 
TTITLE8=Allegro moderato
TTITLE9=Haydn String Quartet in F Op 77 Lobkowitz No 2 Hob III 82 - 2 
TTITLE9=Menuetto(Presto ma non troppo)
TTITLE10=Haydn String Quartet in F Op 77 Lobkowitz No 2 Hob III 82 - 3
TTITLE10=Andante
TTITLE11=Haydn String Quartet in F Op 77 Lobkowitz No 2 Hob III 82 - 4
TTITLE11=Finale(Vivace assai)
EXTD=YEAR: 1974
EXTT0=
EXTT1=
EXTT2=
EXTT3=
EXTT4=
EXTT5=
EXTT6=
EXTT7=
EXTT8=
EXTT9=
EXTT10=
EXTT11=
PLAYORDER=
